<?xml version="1.0" encoding="UTF-8"?><svg xmlns="http://www.w3.org/2000/svg" xmlns:xlink="http://www.w3.org/1999/xlink" height="221.9" preserveAspectRatio="xMidYMid meet" version="1.0" viewBox="135.2 101.4 154.8 221.9" width="154.8" zoomAndPan="magnify"><g><path d="M 2548.085938 1144.382812 C 2547.734375 1211.53125 2493.164062 1265.90625 2425.859375 1265.90625 C 2397.265625 1265.90625 2371.054688 1256.023438 2350.195312 1239.578125 L 2262.65625 1649.265625 L 1989.414062 1649.265625 L 1901.875 1239.578125 C 1881.054688 1256.023438 1854.804688 1265.90625 1826.171875 1265.90625 C 1758.867188 1265.90625 1704.296875 1211.53125 1703.945312 1144.382812" fill="none" stroke="#180d0c" stroke-linecap="round" stroke-linejoin="round" stroke-miterlimit="10" stroke-width="40" transform="matrix(.1 0 0 -.1 0 425.2)"/><g id="change1_1"><path d="M 174.699219 306.742188 C 174.699219 310.46875 171.691406 313.476562 167.972656 313.476562 C 164.253906 313.476562 161.242188 310.46875 161.242188 306.742188 C 161.242188 303.027344 164.253906 300.019531 167.972656 300.019531 C 171.691406 300.019531 174.699219 303.027344 174.699219 306.742188" fill="#fff"/></g><path d="M 1746.992188 1184.578125 C 1746.992188 1147.3125 1716.914062 1117.234375 1679.726562 1117.234375 C 1642.539062 1117.234375 1612.421875 1147.3125 1612.421875 1184.578125 C 1612.421875 1221.726562 1642.539062 1251.804688 1679.726562 1251.804688 C 1716.914062 1251.804688 1746.992188 1221.726562 1746.992188 1184.578125 Z M 1746.992188 1184.578125" fill="none" stroke="#180d0c" stroke-linecap="round" stroke-linejoin="round" stroke-miterlimit="10" stroke-width="40" transform="matrix(.1 0 0 -.1 0 425.2)"/><g id="change1_2"><path d="M 260.882812 309.058594 C 260.882812 312.773438 257.871094 315.789062 254.152344 315.789062 C 250.4375 315.789062 247.425781 312.773438 247.425781 309.058594 C 247.425781 305.34375 250.4375 302.335938 254.152344 302.335938 C 257.871094 302.335938 260.882812 305.34375 260.882812 309.058594" fill="#fff"/></g><path d="M 2608.828125 1161.414062 C 2608.828125 1124.265625 2578.710938 1094.109375 2541.523438 1094.109375 C 2504.375 1094.109375 2474.257812 1124.265625 2474.257812 1161.414062 C 2474.257812 1198.5625 2504.375 1228.640625 2541.523438 1228.640625 C 2578.710938 1228.640625 2608.828125 1198.5625 2608.828125 1161.414062 Z M 2608.828125 1161.414062" fill="none" stroke="#180d0c" stroke-linecap="round" stroke-linejoin="round" stroke-miterlimit="10" stroke-width="40" transform="matrix(.1 0 0 -.1 0 425.2)"/><g id="change1_3"><path d="M 2507.929688 1402.625 C 2526.484375 1402.625 2541.523438 1387.585938 2541.523438 1368.953125 C 2541.523438 1350.4375 2526.484375 1335.28125 2507.929688 1335.28125 C 2489.296875 1335.28125 2474.257812 1350.4375 2474.257812 1368.953125" fill="#fff" stroke="#180d0c" stroke-linecap="round" stroke-linejoin="round" stroke-miterlimit="10" stroke-width="30" transform="matrix(.1 0 0 -.1 0 425.2)"/></g><g id="change1_4"><path d="M 1679.726562 1436.296875 C 1698.28125 1436.296875 1713.359375 1421.257812 1713.359375 1402.625 C 1713.359375 1384.070312 1698.28125 1368.953125 1679.726562 1368.953125 C 1661.132812 1368.953125 1646.09375 1384.070312 1646.09375 1402.625" fill="#fff" stroke="#180d0c" stroke-linecap="round" stroke-linejoin="round" stroke-miterlimit="10" stroke-width="30" transform="matrix(.1 0 0 -.1 0 425.2)"/></g><g id="change1_5"><path d="M 2056.601562 1566.804688 L 1959.882812 1034.460938" fill="#fff" stroke="#180d0c" stroke-linecap="round" stroke-linejoin="round" stroke-miterlimit="10" stroke-width="30" transform="matrix(.1 0 0 -.1 0 425.2)"/></g><g id="change1_6"><path d="M 2195.429688 1566.804688 L 2267.148438 1172.390625" fill="#fff" stroke="#180d0c" stroke-linecap="round" stroke-linejoin="round" stroke-miterlimit="10" stroke-width="30" transform="matrix(.1 0 0 -.1 0 425.2)"/></g><path d="M 2126.015625 1462.625 L 2126.015625 1114.226562" fill="none" stroke="#180d0c" stroke-linecap="round" stroke-linejoin="round" stroke-miterlimit="10" stroke-width="30" transform="matrix(.1 0 0 -.1 0 425.2)"/><g id="change1_7"><path d="M 265.882812 203.507812 C 265.882812 210.898438 262.175781 216.894531 257.582031 216.894531 C 253 216.894531 249.285156 210.898438 249.285156 203.507812 C 249.285156 196.121094 253 190.136719 257.582031 190.136719 C 262.175781 190.136719 265.882812 196.121094 265.882812 203.507812" fill="#fff"/></g><path d="M 2658.828125 2216.921875 C 2658.828125 2143.015625 2621.757812 2083.054688 2575.820312 2083.054688 C 2530 2083.054688 2492.851562 2143.015625 2492.851562 2216.921875 C 2492.851562 2290.789062 2530 2350.632812 2575.820312 2350.632812 C 2621.757812 2350.632812 2658.828125 2290.789062 2658.828125 2216.921875 Z M 2658.828125 2216.921875" fill="none" stroke="#180d0c" stroke-linecap="round" stroke-linejoin="round" stroke-miterlimit="10" stroke-width="40" transform="matrix(.1 0 0 -.1 0 425.2)"/><g id="change1_8"><path d="M 159.316406 203.507812 C 159.316406 210.898438 163.03125 216.894531 167.625 216.894531 C 172.207031 216.894531 175.925781 210.898438 175.925781 203.507812 C 175.925781 196.121094 172.207031 190.136719 167.625 190.136719 C 163.03125 190.136719 159.316406 196.121094 159.316406 203.507812" fill="#fff"/></g><path d="M 1593.164062 2216.921875 C 1593.164062 2143.015625 1630.3125 2083.054688 1676.25 2083.054688 C 1722.070312 2083.054688 1759.257812 2143.015625 1759.257812 2216.921875 C 1759.257812 2290.789062 1722.070312 2350.632812 1676.25 2350.632812 C 1630.3125 2350.632812 1593.164062 2290.789062 1593.164062 2216.921875 Z M 1593.164062 2216.921875" fill="none" stroke="#180d0c" stroke-linecap="round" stroke-linejoin="round" stroke-miterlimit="10" stroke-width="40" transform="matrix(.1 0 0 -.1 0 425.2)"/><g id="change1_9"><path d="M 161.925781 160.191406 L 172.78125 160.191406 L 172.78125 138.980469 L 161.925781 138.980469 Z M 161.925781 160.191406" fill="#fff"/></g><path d="M 1727.8125 2862.195312 L 1619.257812 2862.195312 L 1619.257812 2650.085938 L 1727.8125 2650.085938" fill="none" stroke="#180d0c" stroke-linecap="round" stroke-linejoin="round" stroke-miterlimit="10" stroke-width="40" transform="matrix(.1 0 0 -.1 0 425.2)"/><g id="change1_10"><path d="M 252.417969 160.191406 L 263.273438 160.191406 L 263.273438 138.980469 L 252.417969 138.980469 Z M 252.417969 160.191406" fill="#fff"/></g><path d="M 2524.179688 2862.195312 L 2632.734375 2862.195312 L 2632.734375 2650.085938 L 2524.179688 2650.085938" fill="none" stroke="#180d0c" stroke-linecap="round" stroke-linejoin="round" stroke-miterlimit="10" stroke-width="40" transform="matrix(.1 0 0 -.1 0 425.2)"/><g id="change1_11"><path d="M 254.234375 149.589844 C 254.234375 161.847656 244.300781 171.777344 232.054688 171.777344 L 193.15625 171.777344 C 180.90625 171.777344 170.96875 161.847656 170.96875 149.589844 C 170.96875 137.335938 180.90625 127.402344 193.15625 127.402344 L 232.054688 127.402344 C 244.300781 127.402344 254.234375 137.335938 254.234375 149.589844" fill="#fff"/></g><path d="M 2542.34375 2756.101562 C 2542.34375 2633.523438 2443.007812 2534.226562 2320.546875 2534.226562 L 1931.5625 2534.226562 C 1809.0625 2534.226562 1709.6875 2633.523438 1709.6875 2756.101562 C 1709.6875 2878.640625 1809.0625 2977.976562 1931.5625 2977.976562 L 2320.546875 2977.976562 C 2443.007812 2977.976562 2542.34375 2878.640625 2542.34375 2756.101562 Z M 2542.34375 2756.101562" fill="none" stroke="#180d0c" stroke-linecap="round" stroke-linejoin="round" stroke-miterlimit="10" stroke-width="40" transform="matrix(.1 0 0 -.1 0 425.2)"/><path d="M 1944.296875 2624.070312 L 2307.734375 2624.070312 L 2343.085938 2659.421875" fill="none" stroke="#180d0c" stroke-linecap="round" stroke-linejoin="round" stroke-miterlimit="10" stroke-width="30" transform="matrix(.1 0 0 -.1 0 425.2)"/><g id="change1_12"><path d="M 212.605469 171.777344 C 194.253906 171.777344 179.386719 181.53125 179.386719 193.558594 L 179.386719 248.484375 L 245.8125 248.484375 L 245.8125 193.558594 C 245.8125 181.53125 230.957031 171.777344 212.605469 171.777344" fill="#fff"/></g><path d="M 2126.054688 2534.226562 C 1942.539062 2534.226562 1793.867188 2436.6875 1793.867188 2316.414062 L 1793.867188 1767.15625 L 2458.125 1767.15625 L 2458.125 2316.414062 C 2458.125 2436.6875 2309.570312 2534.226562 2126.054688 2534.226562 Z M 2126.054688 2534.226562" fill="none" stroke="#180d0c" stroke-linecap="round" stroke-linejoin="round" stroke-miterlimit="10" stroke-width="40" transform="matrix(.1 0 0 -.1 0 425.2)"/><g id="change1_13"><path d="M 1917.695312 2316.414062 L 2334.375 2316.414062 C 2334.375 2391.804688 2241.132812 2453.054688 2126.054688 2453.054688" fill="#fff" stroke="#180d0c" stroke-linecap="round" stroke-linejoin="round" stroke-miterlimit="10" stroke-width="30" transform="matrix(.1 0 0 -.1 0 425.2)"/></g><g id="change1_14"><path d="M 259.207031 138.773438 L 253.78125 138.773438 L 253.78125 118.59375 L 259.207031 118.59375 L 259.207031 138.773438" fill="#fff"/></g><path d="M 2592.070312 2864.265625 L 2537.8125 2864.265625 L 2537.8125 3066.0625 L 2592.070312 3066.0625 Z M 2592.070312 2864.265625" fill="none" stroke="#180d0c" stroke-linecap="round" stroke-linejoin="round" stroke-miterlimit="10" stroke-width="40" transform="matrix(.1 0 0 -.1 0 425.2)"/><g id="change1_15"><path d="M 171.429688 138.773438 L 165.992188 138.773438 L 165.992188 118.59375 L 171.429688 118.59375 L 171.429688 138.773438" fill="#fff"/></g><path d="M 1714.296875 2864.265625 L 1659.921875 2864.265625 L 1659.921875 3066.0625 L 1714.296875 3066.0625 Z M 1714.296875 2864.265625" fill="none" stroke="#180d0c" stroke-linecap="round" stroke-linejoin="round" stroke-miterlimit="10" stroke-width="40" transform="matrix(.1 0 0 -.1 0 425.2)"/><g id="change1_16"><path d="M 225.925781 126.996094 L 199.273438 126.996094 L 199.273438 120.058594 L 225.925781 120.058594 L 225.925781 126.996094" fill="#fff"/></g><path d="M 2259.257812 2982.039062 L 1992.734375 2982.039062 L 1992.734375 3051.414062 L 2259.257812 3051.414062 Z M 2259.257812 2982.039062" fill="none" stroke="#180d0c" stroke-linecap="round" stroke-linejoin="round" stroke-miterlimit="10" stroke-width="40" transform="matrix(.1 0 0 -.1 0 425.2)"/><g id="change1_17"><path d="M 202.726562 144.886719 C 202.726562 149.480469 199.011719 153.195312 194.429688 153.195312 C 189.84375 153.195312 186.121094 149.480469 186.121094 144.886719 C 186.121094 140.3125 189.84375 136.585938 194.429688 136.585938 C 199.011719 136.585938 202.726562 140.3125 202.726562 144.886719" fill="#fff"/></g><path d="M 2027.265625 2803.132812 C 2027.265625 2757.195312 1990.117188 2720.046875 1944.296875 2720.046875 C 1898.4375 2720.046875 1861.210938 2757.195312 1861.210938 2803.132812 C 1861.210938 2848.875 1898.4375 2886.140625 1944.296875 2886.140625 C 1990.117188 2886.140625 2027.265625 2848.875 2027.265625 2803.132812 Z M 2027.265625 2803.132812" fill="none" stroke="#180d0c" stroke-linecap="round" stroke-linejoin="round" stroke-miterlimit="10" stroke-width="40" transform="matrix(.1 0 0 -.1 0 425.2)"/><g id="change1_18"><path d="M 202.726562 144.886719 C 202.726562 149.480469 199.011719 153.195312 194.429688 153.195312 C 189.84375 153.195312 186.121094 149.480469 186.121094 144.886719 C 186.121094 140.3125 189.84375 136.585938 194.429688 136.585938 C 199.011719 136.585938 202.726562 140.3125 202.726562 144.886719" fill="#fff"/></g><path d="M 2027.265625 2803.132812 C 2027.265625 2757.195312 1990.117188 2720.046875 1944.296875 2720.046875 C 1898.4375 2720.046875 1861.210938 2757.195312 1861.210938 2803.132812 C 1861.210938 2848.875 1898.4375 2886.140625 1944.296875 2886.140625 C 1990.117188 2886.140625 2027.265625 2848.875 2027.265625 2803.132812 Z M 2027.265625 2803.132812" fill="none" stroke="#180d0c" stroke-linecap="round" stroke-linejoin="round" stroke-miterlimit="10" stroke-width="40" transform="matrix(.1 0 0 -.1 0 425.2)"/><g id="change1_19"><path d="M 239.082031 144.886719 C 239.082031 149.480469 235.363281 153.195312 230.773438 153.195312 C 226.195312 153.195312 222.480469 149.480469 222.480469 144.886719 C 222.480469 140.3125 226.195312 136.585938 230.773438 136.585938 C 235.363281 136.585938 239.082031 140.3125 239.082031 144.886719" fill="#fff"/></g><path d="M 2390.820312 2803.132812 C 2390.820312 2757.195312 2353.632812 2720.046875 2307.734375 2720.046875 C 2261.953125 2720.046875 2224.804688 2757.195312 2224.804688 2803.132812 C 2224.804688 2848.875 2261.953125 2886.140625 2307.734375 2886.140625 C 2353.632812 2886.140625 2390.820312 2848.875 2390.820312 2803.132812 Z M 2390.820312 2803.132812" fill="none" stroke="#180d0c" stroke-linecap="round" stroke-linejoin="round" stroke-miterlimit="10" stroke-width="40" transform="matrix(.1 0 0 -.1 0 425.2)"/><g id="change1_20"><path d="M 177.015625 111.75 C 177.015625 116.339844 173.292969 120.058594 168.707031 120.058594 C 164.132812 120.058594 160.40625 116.339844 160.40625 111.75 C 160.40625 107.164062 164.132812 103.449219 168.707031 103.449219 C 173.292969 103.449219 177.015625 107.164062 177.015625 111.75" fill="#fff"/></g><path d="M 1770.15625 3134.5 C 1770.15625 3088.601562 1732.929688 3051.414062 1687.070312 3051.414062 C 1641.328125 3051.414062 1604.0625 3088.601562 1604.0625 3134.5 C 1604.0625 3180.359375 1641.328125 3217.507812 1687.070312 3217.507812 C 1732.929688 3217.507812 1770.15625 3180.359375 1770.15625 3134.5 Z M 1770.15625 3134.5" fill="none" stroke="#180d0c" stroke-linecap="round" stroke-linejoin="round" stroke-miterlimit="10" stroke-width="40" transform="matrix(.1 0 0 -.1 0 425.2)"/><g id="change1_21"><path d="M 264.792969 111.75 C 264.792969 116.339844 261.085938 120.058594 256.492188 120.058594 C 251.910156 120.058594 248.191406 116.339844 248.191406 111.75 C 248.191406 107.164062 251.910156 103.449219 256.492188 103.449219 C 261.085938 103.449219 264.792969 107.164062 264.792969 111.75" fill="#fff"/></g><path d="M 2647.929688 3134.5 C 2647.929688 3088.601562 2610.859375 3051.414062 2564.921875 3051.414062 C 2519.101562 3051.414062 2481.914062 3088.601562 2481.914062 3134.5 C 2481.914062 3180.359375 2519.101562 3217.507812 2564.921875 3217.507812 C 2610.859375 3217.507812 2647.929688 3180.359375 2647.929688 3134.5 Z M 2647.929688 3134.5" fill="none" stroke="#180d0c" stroke-linecap="round" stroke-linejoin="round" stroke-miterlimit="10" stroke-width="40" transform="matrix(.1 0 0 -.1 0 425.2)"/><g id="change1_22"><path d="M 233.4375 241.851562 L 191.769531 241.851562 L 191.769531 198.699219 L 233.4375 198.699219 L 233.4375 241.851562" fill="#fff"/></g><path d="M 2334.375 1833.484375 L 1917.695312 1833.484375 L 1917.695312 2265.007812 L 2334.375 2265.007812 Z M 2334.375 1833.484375" fill="none" stroke="#180d0c" stroke-linecap="round" stroke-linejoin="round" stroke-miterlimit="10" stroke-width="30" transform="matrix(.1 0 0 -.1 0 425.2)"/><path d="M 2283.554688 2120.242188 L 2283.554688 1983.679688" fill="none" stroke="#180d0c" stroke-linecap="round" stroke-linejoin="round" stroke-miterlimit="10" stroke-width="30" transform="matrix(.1 0 0 -.1 0 425.2)"/><g id="change1_23"><path d="M 258.675781 219.464844 C 258.675781 223.152344 255.683594 226.152344 251.980469 226.152344 C 248.289062 226.152344 245.289062 223.152344 245.289062 219.464844 L 245.289062 187.566406 C 245.289062 183.863281 248.289062 180.871094 251.980469 180.871094 C 255.683594 180.871094 258.675781 183.863281 258.675781 187.566406 L 258.675781 219.464844" fill="#fff"/></g><path d="M 2586.757812 2057.351562 C 2586.757812 2020.476562 2556.835938 1990.476562 2519.804688 1990.476562 C 2482.890625 1990.476562 2452.890625 2020.476562 2452.890625 2057.351562 L 2452.890625 2376.335938 C 2452.890625 2413.367188 2482.890625 2443.289062 2519.804688 2443.289062 C 2556.835938 2443.289062 2586.757812 2413.367188 2586.757812 2376.335938 Z M 2586.757812 2057.351562" fill="none" stroke="#180d0c" stroke-linecap="round" stroke-linejoin="round" stroke-miterlimit="10" stroke-width="40" transform="matrix(.1 0 0 -.1 0 425.2)"/><g id="change1_24"><path d="M 166.527344 219.464844 C 166.527344 223.152344 169.527344 226.152344 173.21875 226.152344 C 176.929688 226.152344 179.921875 223.152344 179.921875 219.464844 L 179.921875 187.566406 C 179.921875 183.863281 176.929688 180.871094 173.21875 180.871094 C 169.527344 180.871094 166.527344 183.863281 166.527344 187.566406 L 166.527344 219.464844" fill="#fff"/></g><path d="M 1665.273438 2057.351562 C 1665.273438 2020.476562 1695.273438 1990.476562 1732.1875 1990.476562 C 1769.296875 1990.476562 1799.21875 2020.476562 1799.21875 2057.351562 L 1799.21875 2376.335938 C 1799.21875 2413.367188 1769.296875 2443.289062 1732.1875 2443.289062 C 1695.273438 2443.289062 1665.273438 2413.367188 1665.273438 2376.335938 Z M 1665.273438 2057.351562" fill="none" stroke="#180d0c" stroke-linecap="round" stroke-linejoin="round" stroke-miterlimit="10" stroke-width="40" transform="matrix(.1 0 0 -.1 0 425.2)"/><g id="change1_25"><path d="M 228.550781 248.484375 C 232.246094 248.484375 235.246094 251.480469 235.246094 255.179688 C 235.246094 258.871094 232.246094 261.871094 228.550781 261.871094 L 196.65625 261.871094 C 192.957031 261.871094 189.964844 258.871094 189.964844 255.179688 C 189.964844 251.480469 192.957031 248.484375 196.65625 248.484375 L 228.550781 248.484375" fill="#fff"/></g><path d="M 2285.507812 1767.15625 C 2322.460938 1767.15625 2352.460938 1737.195312 2352.460938 1700.203125 C 2352.460938 1663.289062 2322.460938 1633.289062 2285.507812 1633.289062 L 1966.5625 1633.289062 C 1929.570312 1633.289062 1899.648438 1663.289062 1899.648438 1700.203125 C 1899.648438 1737.195312 1929.570312 1767.15625 1966.5625 1767.15625 Z M 2285.507812 1767.15625" fill="none" stroke="#180d0c" stroke-linecap="round" stroke-linejoin="round" stroke-miterlimit="10" stroke-width="40" transform="matrix(.1 0 0 -.1 0 425.2)"/><path d="M 1972.460938 1635.90625 L 1972.460938 1764.421875" fill="none" stroke="#180d0c" stroke-linecap="round" stroke-linejoin="round" stroke-miterlimit="10" stroke-width="30" transform="matrix(.1 0 0 -.1 0 425.2)"/><path d="M 2033.164062 1635.90625 L 2033.164062 1764.421875" fill="none" stroke="#180d0c" stroke-linecap="round" stroke-linejoin="round" stroke-miterlimit="10" stroke-width="30" transform="matrix(.1 0 0 -.1 0 425.2)"/><path d="M 2093.984375 1635.90625 L 2093.984375 1764.421875" fill="none" stroke="#180d0c" stroke-linecap="round" stroke-linejoin="round" stroke-miterlimit="10" stroke-width="30" transform="matrix(.1 0 0 -.1 0 425.2)"/><path d="M 2154.6875 1635.90625 L 2154.6875 1764.421875" fill="none" stroke="#180d0c" stroke-linecap="round" stroke-linejoin="round" stroke-miterlimit="10" stroke-width="30" transform="matrix(.1 0 0 -.1 0 425.2)"/><path d="M 2215.429688 1635.90625 L 2215.429688 1764.421875" fill="none" stroke="#180d0c" stroke-linecap="round" stroke-linejoin="round" stroke-miterlimit="10" stroke-width="30" transform="matrix(.1 0 0 -.1 0 425.2)"/><path d="M 2276.210938 1635.90625 L 2276.210938 1764.421875" fill="none" stroke="#180d0c" stroke-linecap="round" stroke-linejoin="round" stroke-miterlimit="10" stroke-width="30" transform="matrix(.1 0 0 -.1 0 425.2)"/><path d="M 2690.976562 1538.445312 L 2782.65625 1649.265625 L 2782.65625 1983.679688 L 2658.828125 2216.921875" fill="none" stroke="#180d0c" stroke-linecap="round" stroke-linejoin="round" stroke-miterlimit="10" stroke-width="40" transform="matrix(.1 0 0 -.1 0 425.2)"/><g id="change1_26"><path d="M 2782.65625 1649.265625 L 2877.734375 1538.445312" fill="#fff" stroke="#180d0c" stroke-linecap="round" stroke-linejoin="round" stroke-miterlimit="10" stroke-width="40" transform="matrix(.1 0 0 -.1 0 425.2)"/></g><path d="M 1561.015625 1538.445312 L 1469.335938 1649.265625 L 1469.335938 1983.679688 L 1593.164062 2216.921875" fill="none" stroke="#180d0c" stroke-linecap="round" stroke-linejoin="round" stroke-miterlimit="10" stroke-width="40" transform="matrix(.1 0 0 -.1 0 425.2)"/><g id="change1_27"><path d="M 1469.335938 1649.265625 L 1374.257812 1538.445312" fill="#fff" stroke="#180d0c" stroke-linecap="round" stroke-linejoin="round" stroke-miterlimit="10" stroke-width="40" transform="matrix(.1 0 0 -.1 0 425.2)"/></g></g></svg>